<svg width="31" height="25" viewBox="0 0 31 25" fill="none" xmlns="http://www.w3.org/2000/svg">
<path d="M30.5817 6.1249L27.0538 17.3116C26.79 18.1083 26.0976 18.6394 25.2733 18.6394H11.6563C10.865 18.6394 10.1067 18.1415 9.84289 17.4112L4.63347 3.36971H1.63311C0.907748 3.36971 0.31427 2.7722 0.31427 2.04191C0.31427 1.31162 0.907748 0.714111 1.63311 0.714111H5.55666C6.11717 0.714111 6.61173 1.07926 6.80956 1.61038L12.1838 15.9838H24.7128L27.5154 7.02116H11.986C11.2606 7.02116 10.6672 6.42365 10.6672 5.69336C10.6672 4.96307 11.2606 4.36556 11.986 4.36556H29.3288C29.7574 4.36556 30.153 4.59793 30.3838 4.92988C30.6476 5.26183 30.7135 5.72656 30.5817 6.1249ZM12.3157 20.3988C11.7552 20.3988 11.1947 20.6311 10.7991 21.0295C10.4034 21.4278 10.1726 21.9921 10.1726 22.5564C10.1726 23.1208 10.4034 23.6851 10.7991 24.0834C11.1947 24.4817 11.7552 24.7141 12.3157 24.7141C12.8762 24.7141 13.4367 24.4817 13.8324 24.0834C14.228 23.6851 14.4588 23.1208 14.4588 22.5564C14.4588 21.9921 14.228 21.4278 13.8324 21.0295C13.4367 20.6311 12.8762 20.3988 12.3157 20.3988ZM24.1523 20.3988C23.5918 20.3988 23.0313 20.6311 22.6356 21.0295C22.24 21.4278 22.0092 21.9921 22.0092 22.5564C22.0092 23.1208 22.24 23.6851 22.6356 24.0834C23.0313 24.4817 23.5918 24.7141 24.1523 24.7141C24.7128 24.7141 25.2733 24.4817 25.669 24.0834C26.0646 23.6851 26.2954 23.1208 26.2954 22.5564C26.2954 21.9921 26.0646 21.4278 25.669 21.0295C25.2733 20.6311 24.7128 20.3988 24.1523 20.3988Z" fill="white"/>
</svg>
