<svg width="86" height="86" viewBox="0 0 86 86" fill="none" xmlns="http://www.w3.org/2000/svg">
<path fill-rule="evenodd" clip-rule="evenodd" d="M37.2005 0C26.7824 3.4727 4.07085 15.0021 0.737057 33.3379C-3.43018 56.2578 11.1552 72.9267 17.406 77.094V67.7177C14.2806 65.2868 8.02977 57.9247 8.02977 47.9233H28.866V85.4285H37.2005V47.9233H49.7022V85.4285C61.5094 82.9976 85.1238 70.8431 85.1238 41.6724H67.413V47.9233H76.7893C76.7893 54.5214 72.622 69.1762 55.9531 75.0104V10.4181C60.1203 11.8072 69.9133 17.5024 75.7475 29.1707H83.0401C80.6092 21.878 70.5384 5.83414 49.7022 0V41.6724H37.2005V0ZM28.8661 41.6724V10.4181C21.2262 14.5853 6.15464 26.6704 6.98809 41.6724H28.8661Z" fill="white"/>
</svg>
