<svg width="30" height="31" viewBox="0 0 30 31" fill="none" xmlns="http://www.w3.org/2000/svg">
<path fill-rule="evenodd" clip-rule="evenodd" d="M0 15.5122C0 22.9703 5.41666 29.1715 12.5 30.4285V19.5951H8.75V15.4285H12.5V12.0951C12.5 8.34512 14.9166 6.26179 18.3334 6.26179C19.4166 6.26179 20.5834 6.42845 21.6666 6.59512V10.4285H19.75C17.9166 10.4285 17.5 11.3451 17.5 12.5118V15.4285H21.5L20.8334 19.5951H17.5V30.4285C24.5834 29.1715 30 22.9703 30 15.5122C30 7.21618 23.25 0.428467 15 0.428467C6.75 0.428467 0 7.21618 0 15.5122H0Z" fill="#2E5CFF"/>
</svg>
