<svg width="50" height="50" viewBox="0 0 50 50" fill="none" xmlns="http://www.w3.org/2000/svg">
<circle cx="25" cy="25" r="25" fill="#969696"/>
<path fill-rule="evenodd" clip-rule="evenodd" d="M20.0527 13.072C21.3327 13.0133 21.7407 13 25 13C28.26 13 28.6673 13.014 29.9466 13.072C31.2246 13.13 32.0973 13.3333 32.8607 13.63C33.6613 13.9314 34.3865 14.4037 34.986 15.014C35.5963 15.6134 36.0687 16.3387 36.37 17.1393C36.6666 17.9027 36.8693 18.7753 36.928 20.0527C36.9867 21.3327 37 21.7407 37 25C37 28.2593 36.986 28.6673 36.928 29.9474C36.87 31.2246 36.6666 32.0973 36.37 32.8607C36.0633 33.6494 35.6526 34.3193 34.986 34.986C34.3866 35.5963 33.6613 36.0687 32.8607 36.37C32.0973 36.6666 31.2246 36.8693 29.9474 36.928C28.6673 36.9867 28.2593 37 25 37C21.7407 37 21.3327 36.986 20.0527 36.928C18.7753 36.87 17.9027 36.6666 17.1393 36.37C16.3507 36.0633 15.6807 35.6526 15.014 34.986C14.4036 34.3866 13.9313 33.6613 13.63 32.8607C13.3333 32.0973 13.1307 31.2246 13.072 29.9474C13.0133 28.6673 13 28.26 13 25C13 21.74 13.014 21.3327 13.072 20.0533C13.13 18.7753 13.3333 17.9027 13.63 17.1393C13.9314 16.3387 14.4037 15.6135 15.014 15.014C15.6134 14.4036 16.3387 13.9313 17.1393 13.63C17.9027 13.3333 18.7753 13.1307 20.0527 13.072ZM29.8493 15.232C28.584 15.1747 28.204 15.162 25 15.162C21.796 15.162 21.416 15.1747 20.1507 15.232C18.9807 15.2853 18.3453 15.4807 17.9227 15.6453C17.3627 15.8627 16.9627 16.1227 16.5427 16.5427C16.1233 16.9627 15.8627 17.3627 15.6453 17.9227C15.4807 18.3453 15.2853 18.9807 15.232 20.1507C15.1747 21.416 15.162 21.796 15.162 25C15.162 28.204 15.1747 28.584 15.232 29.8493C15.2853 31.0193 15.4807 31.6547 15.6453 32.0774C15.8376 32.5986 16.1442 33.0701 16.5427 33.4574C16.9298 33.8558 17.4014 34.1624 17.9227 34.3547C18.3453 34.5194 18.9807 34.7147 20.1507 34.768C21.416 34.8254 21.7953 34.838 25 34.838C28.2047 34.838 28.584 34.8254 29.8493 34.768C31.0193 34.7147 31.6547 34.5194 32.0774 34.3547C32.6373 34.1373 33.0374 33.8774 33.4574 33.4574C33.8558 33.0702 34.1624 32.5986 34.3547 32.0774C34.5194 31.6547 34.7147 31.0193 34.768 29.8493C34.8254 28.584 34.838 28.204 34.838 25C34.838 21.796 34.8254 21.416 34.768 20.1507C34.7147 18.9807 34.5194 18.3453 34.3547 17.9227C34.1373 17.3627 33.8774 16.9627 33.4574 16.5427C33.0374 16.1233 32.6373 15.8627 32.0774 15.6453C31.6547 15.4807 31.0193 15.2853 29.8493 15.232ZM23.4678 28.6992C23.9536 28.9004 24.4742 29.004 25 29.004C26.062 29.004 27.0804 28.5821 27.8312 27.8312C28.5822 27.0804 29.0041 26.0619 29.0041 25C29.0041 23.9381 28.5822 22.9196 27.8312 22.1687C27.0804 21.4178 26.062 20.996 25 20.996C24.4742 20.996 23.9536 21.0996 23.4678 21.3008C22.9819 21.502 22.5406 21.7969 22.1688 22.1687C21.797 22.5405 21.502 22.9819 21.3008 23.4677C21.0996 23.9535 20.996 24.4742 20.996 25C20.996 25.5258 21.0996 26.0465 21.3008 26.5323C21.502 27.0181 21.797 27.4595 22.1688 27.8312C22.5406 28.203 22.9819 28.498 23.4678 28.6992ZM20.6386 20.6386C21.7953 19.4818 23.3642 18.832 25 18.832C26.6359 18.832 28.2048 19.4818 29.3615 20.6386C30.5181 21.7953 31.168 23.3642 31.168 25C31.168 26.6358 30.5181 28.2047 29.3615 29.3615C28.2048 30.5181 26.6359 31.168 25 31.168C23.3642 31.168 21.7953 30.5181 20.6386 29.3615C19.4819 28.2047 18.832 26.6358 18.832 25C18.832 23.3642 19.4819 21.7953 20.6386 20.6386ZM32.5357 19.751C32.8091 19.4775 32.9627 19.1067 32.9627 18.72C32.9627 18.3333 32.8091 17.9625 32.5357 17.689C32.2622 17.4156 31.8914 17.262 31.5047 17.262C31.118 17.262 30.7471 17.4156 30.4737 17.689C30.2003 17.9625 30.0467 18.3333 30.0467 18.72C30.0467 19.1067 30.2003 19.4775 30.4737 19.751C30.7471 20.0244 31.118 20.178 31.5047 20.178C31.8914 20.178 32.2622 20.0244 32.5357 19.751Z" fill="white"/>
</svg>
