<svg width="30" height="31" viewBox="0 0 30 31" fill="none" xmlns="http://www.w3.org/2000/svg">
<path d="M21.0906 10.8207C20.9605 10.4835 20.7611 10.1774 20.5055 9.92204C20.2498 9.66665 19.9435 9.46765 19.6063 9.33784C19.1419 9.16585 18.6514 9.07494 18.1563 9.06909C17.3328 9.03159 17.0859 9.02221 15 9.02221C12.9141 9.02221 12.6672 9.03159 11.8438 9.06909C11.3481 9.07476 10.8571 9.16567 10.3922 9.33784C10.0551 9.468 9.74897 9.66733 9.49358 9.92299C9.23819 10.1786 9.03919 10.485 8.90938 10.8222C8.73739 11.2866 8.64648 11.7771 8.64063 12.2722C8.60313 13.0957 8.59375 13.3425 8.59375 15.4285C8.59375 17.5144 8.60313 17.7613 8.64063 18.5847C8.6463 19.0804 8.73721 19.5714 8.90938 20.0363C9.03954 20.3734 9.23887 20.6795 9.49453 20.9349C9.75019 21.1903 10.0565 21.3893 10.3938 21.5191C10.8581 21.6911 11.3486 21.782 11.8438 21.7878C12.6672 21.8253 12.9141 21.8332 15 21.8332C17.0859 21.8332 17.3328 21.8253 18.1563 21.7863C18.6518 21.7811 19.1429 21.6907 19.6078 21.5191C19.9449 21.3889 20.251 21.1896 20.5064 20.9339C20.7618 20.6783 20.9608 20.372 21.0906 20.0347C21.2626 19.5703 21.3535 19.0799 21.3594 18.5847C21.3969 17.7613 21.4047 17.5144 21.4047 15.4285C21.4047 13.3425 21.3969 13.0957 21.3578 12.2722C21.3526 11.7766 21.2623 11.2856 21.0906 10.8207ZM15 19.441C14.2064 19.441 13.4306 19.2056 12.7708 18.7647C12.1109 18.3238 11.5966 17.6972 11.2929 16.964C10.9892 16.2308 10.9098 15.424 11.0646 14.6457C11.2194 13.8673 11.6016 13.1524 12.1627 12.5912C12.7239 12.03 13.4389 11.6479 14.2172 11.4931C14.9956 11.3382 15.8023 11.4177 16.5355 11.7214C17.2687 12.0251 17.8954 12.5394 18.3363 13.1992C18.7772 13.8591 19.0125 14.6349 19.0125 15.4285C19.0125 16.4926 18.5898 17.5132 17.8373 18.2657C17.0848 19.0182 16.0642 19.441 15 19.441ZM19.1703 12.1957C18.9849 12.1957 18.8036 12.1407 18.6495 12.0377C18.4953 11.9346 18.3751 11.7882 18.3042 11.6169C18.2332 11.4456 18.2147 11.2571 18.2508 11.0753C18.287 10.8934 18.3763 10.7264 18.5074 10.5952C18.6385 10.4641 18.8056 10.3748 18.9874 10.3387C19.1693 10.3025 19.3578 10.3211 19.5291 10.392C19.7004 10.463 19.8468 10.5831 19.9498 10.7373C20.0528 10.8915 20.1078 11.0727 20.1078 11.2582C20.1078 11.5068 20.009 11.7452 19.8332 11.9211C19.6574 12.0969 19.419 12.1957 19.1703 12.1957ZM17.6047 15.4285C17.6047 15.9436 17.4519 16.4472 17.1657 16.8755C16.8795 17.3039 16.4727 17.6377 15.9968 17.8349C15.5208 18.032 14.9971 18.0836 14.4919 17.9831C13.9866 17.8826 13.5225 17.6345 13.1582 17.2703C12.7939 16.906 12.5459 16.4419 12.4454 15.9366C12.3449 15.4314 12.3964 14.9076 12.5936 14.4317C12.7907 13.9557 13.1246 13.549 13.5529 13.2627C13.9813 12.9765 14.4848 12.8238 15 12.8238C15.6908 12.8238 16.3533 13.0982 16.8418 13.5867C17.3303 14.0751 17.6047 14.7377 17.6047 15.4285ZM15 0.428467C12.0333 0.428467 9.13319 1.3082 6.66645 2.95642C4.19972 4.60464 2.27713 6.94732 1.14181 9.68821C0.00649923 12.4291 -0.290551 15.4451 0.288227 18.3548C0.867006 21.2645 2.29562 23.9373 4.3934 26.0351C6.49119 28.1329 9.16393 29.5615 12.0736 30.1402C14.9834 30.719 17.9994 30.422 20.7403 29.2867C23.4811 28.1513 25.8238 26.2288 27.472 23.762C29.1203 21.2953 30 18.3952 30 15.4285C30 11.4502 28.4196 7.63491 25.6066 4.82186C22.7936 2.00882 18.9783 0.428467 15 0.428467V0.428467ZM22.7656 18.6488C22.7524 19.2971 22.6293 19.9385 22.4016 20.5457C22.2009 21.0645 21.894 21.5357 21.5007 21.9291C21.1073 22.3225 20.6361 22.6294 20.1172 22.83C19.5105 23.0576 18.8697 23.1807 18.2219 23.1941C17.3875 23.2316 17.1219 23.241 15 23.241C12.8781 23.241 12.6125 23.2316 11.7781 23.1941C11.1303 23.1807 10.4895 23.0576 9.88282 22.83C9.36394 22.6294 8.89272 22.3225 8.49934 21.9291C8.10596 21.5357 7.79911 21.0645 7.59844 20.5457C7.37088 19.939 7.24779 19.2981 7.23438 18.6503C7.19688 17.816 7.1875 17.5503 7.1875 15.4285C7.1875 13.3066 7.19688 13.041 7.23438 12.2066C7.24728 11.5589 7.36985 10.918 7.59688 10.3113C7.79753 9.79196 8.10455 9.32034 8.49821 8.92667C8.89188 8.53301 9.3635 8.22599 9.88282 8.02534C10.4896 7.79831 11.1304 7.67575 11.7781 7.66284C12.6125 7.62534 12.8781 7.61596 15 7.61596C17.1219 7.61596 17.3875 7.62534 18.2219 7.66284C18.8696 7.67575 19.5104 7.79831 20.1172 8.02534C20.6362 8.22618 21.1075 8.53327 21.5009 8.92693C21.8943 9.32059 22.2011 9.79212 22.4016 10.3113C22.6291 10.9179 22.7522 11.5588 22.7656 12.2066C22.8031 13.041 22.8125 13.3066 22.8125 15.4285C22.8125 17.5503 22.8031 17.816 22.7656 18.6503V18.6488Z" fill="#A32EFF"/>
</svg>
