<svg width="25" height="25" viewBox="0 0 25 25" fill="none" xmlns="http://www.w3.org/2000/svg">
<path d="M23.92 22.4271L19.3881 17.9086C20.8503 16.0458 21.6437 13.7455 21.6407 11.3773C21.6407 9.26836 21.0153 7.20673 19.8437 5.45317C18.672 3.69961 17.0066 2.33288 15.0581 1.52581C13.1097 0.718732 10.9657 0.507564 8.89721 0.919007C6.82875 1.33045 4.92874 2.34602 3.43746 3.8373C1.94618 5.32858 0.930609 7.22859 0.519166 9.29705C0.107723 11.3655 0.31889 13.5095 1.12596 15.458C1.93304 17.4064 3.29977 19.0718 5.05333 20.2435C6.80689 21.4152 8.86852 22.0406 10.9775 22.0406C13.3456 22.0435 15.6459 21.2501 17.5087 19.788L22.0273 24.3198C22.1512 24.4448 22.2986 24.5439 22.461 24.6116C22.6235 24.6793 22.7977 24.7141 22.9736 24.7141C23.1496 24.7141 23.3238 24.6793 23.4862 24.6116C23.6487 24.5439 23.7961 24.4448 23.92 24.3198C24.0449 24.1959 24.1441 24.0485 24.2118 23.8861C24.2794 23.7237 24.3143 23.5494 24.3143 23.3735C24.3143 23.1975 24.2794 23.0233 24.2118 22.8609C24.1441 22.6984 24.0449 22.551 23.92 22.4271ZM2.98008 11.3773C2.98008 9.7956 3.44912 8.24939 4.32789 6.93422C5.20666 5.61905 6.45569 4.594 7.91702 3.98869C9.37836 3.38338 10.9864 3.22501 12.5377 3.53359C14.0891 3.84217 15.5141 4.60385 16.6325 5.72231C17.751 6.84077 18.5127 8.26578 18.8213 9.81713C19.1298 11.3685 18.9715 12.9765 18.3662 14.4378C17.7609 15.8992 16.7358 17.1482 15.4206 18.027C14.1055 18.9057 12.5592 19.3748 10.9775 19.3748C8.85646 19.3748 6.82228 18.5322 5.32247 17.0324C3.82267 15.5326 2.98008 13.4984 2.98008 11.3773Z" fill="white"/>
</svg>
