<svg width="15" height="12" viewBox="0 0 15 12" fill="none" xmlns="http://www.w3.org/2000/svg">
<path d="M13.2917 11.5H1.375C0.615599 11.5 0 10.8844 0 10.125V1.875C0 1.1156 0.615599 0.5 1.375 0.5H13.2917C14.0511 0.5 14.6667 1.1156 14.6667 1.875V10.125C14.6667 10.8844 14.0511 11.5 13.2917 11.5ZM3.20833 2.10417C2.32237 2.10417 1.60417 2.82238 1.60417 3.70833C1.60417 4.59429 2.32237 5.3125 3.20833 5.3125C4.09429 5.3125 4.8125 4.59429 4.8125 3.70833C4.8125 2.82238 4.09429 2.10417 3.20833 2.10417ZM1.83333 9.66667H12.8333V6.45833L10.3264 3.95139C10.1922 3.81716 9.97451 3.81716 9.84024 3.95139L5.95833 7.83333L4.36806 6.24306C4.23383 6.10883 4.01617 6.10883 3.88191 6.24306L1.83333 8.29167V9.66667Z" fill="black"/>
</svg>
