<svg width="152" height="24" viewBox="0 0 152 24" fill="none" xmlns="http://www.w3.org/2000/svg">
<path d="M21.947 9.179C21.8841 8.99387 21.7684 8.83119 21.6142 8.71106C21.4599 8.59093 21.2739 8.5186 21.079 8.503L15.378 8.05L12.911 2.589C12.8324 2.41311 12.7046 2.26372 12.543 2.15886C12.3814 2.05399 12.193 1.99814 12.0003 1.99803C11.8077 1.99793 11.6191 2.05357 11.4574 2.15826C11.2957 2.26295 11.1678 2.4122 11.089 2.588L8.622 8.05L2.921 8.503C2.72945 8.51817 2.54633 8.58821 2.39355 8.70473C2.24077 8.82125 2.12479 8.97932 2.05949 9.16003C1.99419 9.34074 1.98233 9.53643 2.02534 9.7237C2.06835 9.91097 2.1644 10.0819 2.302 10.216L6.515 14.323L5.025 20.775C4.97975 20.9703 4.99425 21.1747 5.06662 21.3616C5.13898 21.5486 5.26586 21.7095 5.4308 21.8234C5.59574 21.9374 5.79111 21.9991 5.99158 22.0007C6.19204 22.0022 6.38834 21.9434 6.555 21.832L12 18.202L17.445 21.832C17.6153 21.9451 17.8162 22.0033 18.0206 21.9988C18.225 21.9944 18.4232 21.9274 18.5884 21.8069C18.7536 21.6865 18.878 21.5183 18.9448 21.3251C19.0116 21.1318 19.0176 20.9228 18.962 20.726L17.133 14.326L21.669 10.244C21.966 9.976 22.075 9.558 21.947 9.179Z" fill="#15CB8A"/>
<path d="M53.947 9.179C53.8841 8.99387 53.7684 8.83119 53.6142 8.71106C53.4599 8.59093 53.2739 8.5186 53.079 8.503L47.378 8.05L44.911 2.589C44.8324 2.41311 44.7046 2.26372 44.543 2.15886C44.3814 2.05399 44.193 1.99814 44.0003 1.99803C43.8077 1.99793 43.6191 2.05357 43.4574 2.15826C43.2957 2.26295 43.1678 2.4122 43.089 2.588L40.622 8.05L34.921 8.503C34.7295 8.51817 34.5463 8.58821 34.3936 8.70473C34.2408 8.82125 34.1248 8.97932 34.0595 9.16003C33.9942 9.34074 33.9823 9.53643 34.0253 9.7237C34.0683 9.91097 34.1644 10.0819 34.302 10.216L38.515 14.323L37.025 20.775C36.9798 20.9703 36.9943 21.1747 37.0666 21.3616C37.139 21.5486 37.2659 21.7095 37.4308 21.8234C37.5957 21.9374 37.7911 21.9991 37.9916 22.0007C38.192 22.0022 38.3883 21.9434 38.555 21.832L44 18.202L49.445 21.832C49.6153 21.9451 49.8162 22.0033 50.0206 21.9988C50.225 21.9944 50.4232 21.9274 50.5884 21.8069C50.7536 21.6865 50.878 21.5183 50.9448 21.3251C51.0116 21.1318 51.0176 20.9228 50.962 20.726L49.133 14.326L53.669 10.244C53.966 9.976 54.075 9.558 53.947 9.179Z" fill="#15CB8A"/>
<path d="M85.947 9.179C85.8841 8.99387 85.7684 8.83119 85.6142 8.71106C85.4599 8.59093 85.2739 8.5186 85.079 8.503L79.378 8.05L76.911 2.589C76.8324 2.41311 76.7046 2.26372 76.543 2.15886C76.3814 2.05399 76.193 1.99814 76.0003 1.99803C75.8077 1.99793 75.6191 2.05357 75.4574 2.15826C75.2957 2.26295 75.1678 2.4122 75.089 2.588L72.622 8.05L66.921 8.503C66.7295 8.51817 66.5463 8.58821 66.3936 8.70473C66.2408 8.82125 66.1248 8.97932 66.0595 9.16003C65.9942 9.34074 65.9823 9.53643 66.0253 9.7237C66.0683 9.91097 66.1644 10.0819 66.302 10.216L70.515 14.323L69.025 20.775C68.9798 20.9703 68.9943 21.1747 69.0666 21.3616C69.139 21.5486 69.2659 21.7095 69.4308 21.8234C69.5957 21.9374 69.7911 21.9991 69.9916 22.0007C70.192 22.0022 70.3883 21.9434 70.555 21.832L76 18.202L81.445 21.832C81.6153 21.9451 81.8162 22.0033 82.0206 21.9988C82.225 21.9944 82.4232 21.9274 82.5884 21.8069C82.7536 21.6865 82.878 21.5183 82.9448 21.3251C83.0116 21.1318 83.0176 20.9228 82.962 20.726L81.133 14.326L85.669 10.244C85.966 9.976 86.075 9.558 85.947 9.179Z" fill="#15CB8A"/>
<path d="M101.025 20.775C100.991 20.9217 100.99 21.0742 101.023 21.2212C101.056 21.3681 101.122 21.5057 101.216 21.6235C101.31 21.7414 101.429 21.8364 101.565 21.9017C101.701 21.9669 101.849 22.0005 102 22C102.198 22 102.391 21.9416 102.555 21.832L108 18.202L113.445 21.832C113.615 21.9451 113.816 22.0033 114.021 21.9988C114.225 21.9944 114.423 21.9274 114.588 21.8069C114.754 21.6865 114.878 21.5183 114.945 21.3251C115.012 21.1318 115.018 20.9228 114.962 20.726L113.133 14.326L117.669 10.244C117.814 10.1132 117.918 9.94266 117.967 9.75351C118.017 9.56436 118.01 9.36488 117.947 9.17974C117.884 8.9946 117.768 8.83192 117.614 8.71182C117.46 8.59172 117.274 8.51947 117.079 8.504L111.378 8.05L108.911 2.589C108.832 2.41311 108.705 2.26372 108.543 2.15886C108.381 2.05399 108.193 1.99814 108 1.99803C107.808 1.99793 107.619 2.05357 107.457 2.15826C107.296 2.26295 107.168 2.4122 107.089 2.588L104.622 8.05L98.921 8.503C98.7295 8.51817 98.5463 8.58821 98.3936 8.70473C98.2408 8.82125 98.1248 8.97932 98.0595 9.16003C97.9942 9.34074 97.9823 9.53643 98.0253 9.7237C98.0683 9.91097 98.1644 10.0819 98.302 10.216L102.516 14.323L101.025 20.775ZM108 5.429L110.042 9.95L110.63 9.997H110.631L114.603 10.312L111.332 13.256L111.331 13.258L110.868 13.674L111.039 14.271V14.274L112.292 18.659L108 15.798V5.429Z" fill="#15CB8A"/>
<path d="M134.516 14.323L133.026 20.775C132.98 20.9704 132.994 21.1751 133.066 21.3625C133.138 21.5499 133.265 21.7112 133.43 21.8253C133.595 21.9395 133.791 22.0012 133.991 22.0024C134.192 22.0036 134.389 21.9442 134.555 21.832L140 18.202L145.445 21.832C145.615 21.9451 145.816 22.0033 146.021 21.9988C146.225 21.9944 146.423 21.9274 146.588 21.8069C146.754 21.6865 146.878 21.5183 146.945 21.3251C147.012 21.1318 147.018 20.9228 146.962 20.726L145.133 14.326L149.669 10.244C149.814 10.1132 149.918 9.94266 149.967 9.75351C150.017 9.56436 150.01 9.36488 149.947 9.17974C149.884 8.9946 149.768 8.83192 149.614 8.71182C149.46 8.59173 149.274 8.51947 149.079 8.504L143.378 8.05L140.911 2.589C140.832 2.41316 140.704 2.26384 140.543 2.15906C140.381 2.05429 140.193 1.99853 140 1.99853C139.807 1.99853 139.619 2.05429 139.457 2.15906C139.296 2.26384 139.168 2.41316 139.089 2.589L136.622 8.05L130.921 8.503C130.729 8.51818 130.546 8.58821 130.394 8.70473C130.241 8.82125 130.125 8.97932 130.059 9.16003C129.994 9.34074 129.982 9.53643 130.025 9.7237C130.068 9.91097 130.164 10.0819 130.302 10.216L134.516 14.323ZM137.369 9.997C137.547 9.98294 137.719 9.92112 137.865 9.81801C138.012 9.71491 138.128 9.57433 138.201 9.411L140 5.43L141.799 9.411C141.872 9.57433 141.988 9.71491 142.135 9.81801C142.281 9.92112 142.453 9.98294 142.631 9.997L146.603 10.312L143.332 13.256C143.048 13.512 142.935 13.906 143.039 14.274L144.292 18.659L140.556 16.168C140.392 16.0579 140.199 15.9992 140.001 15.9992C139.804 15.9992 139.611 16.0579 139.447 16.168L135.543 18.771L136.593 14.225C136.631 14.0578 136.626 13.8835 136.578 13.7189C136.53 13.5543 136.44 13.4048 136.317 13.285L133.279 10.323L137.369 9.997Z" fill="#15CB8A"/>
</svg>
